<svg width="24" height="24" viewBox="0 0 24 24" fill="none" xmlns="http://www.w3.org/2000/svg">
<path d="M21.2376 8.22464V3.84202C21.2376 2.4809 20.6197 1.93066 19.0849 1.93066H15.1849C13.65 1.93066 13.0322 2.4809 13.0322 3.84202V8.21498C13.0322 9.58576 13.65 10.1263 15.1849 10.1263H19.0849C20.6197 10.136 21.2376 9.58576 21.2376 8.22464Z" stroke="#74788E" stroke-width="1.448" stroke-linecap="round" stroke-linejoin="round"/>
<path d="M21.2376 19.0846V15.1847C21.2376 13.6498 20.6197 13.032 19.0849 13.032H15.1849C13.65 13.032 13.0322 13.6498 13.0322 15.1847V19.0846C13.0322 20.6195 13.65 21.2373 15.1849 21.2373H19.0849C20.6197 21.2373 21.2376 20.6195 21.2376 19.0846Z" stroke="#74788E" stroke-width="1.448" stroke-linecap="round" stroke-linejoin="round"/>
<path d="M10.136 8.22464V3.84202C10.136 2.4809 9.51819 1.93066 7.9833 1.93066H4.08336C2.54848 1.93066 1.93066 2.4809 1.93066 3.84202V8.21498C1.93066 9.58576 2.54848 10.1263 4.08336 10.1263H7.9833C9.51819 10.136 10.136 9.58576 10.136 8.22464Z" stroke="#74788E" stroke-width="1.448" stroke-linecap="round" stroke-linejoin="round"/>
<path d="M10.136 19.0846V15.1847C10.136 13.6498 9.51819 13.032 7.9833 13.032H4.08336C2.54848 13.032 1.93066 13.6498 1.93066 15.1847V19.0846C1.93066 20.6195 2.54848 21.2373 4.08336 21.2373H7.9833C9.51819 21.2373 10.136 20.6195 10.136 19.0846Z" stroke="#74788E" stroke-width="1.448" stroke-linecap="round" stroke-linejoin="round"/>
</svg>
