<svg width="19" height="22" viewBox="0 0 19 22" fill="none" xmlns="http://www.w3.org/2000/svg">
<path d="M18.4915 15.995L17.209 14.15C17.0339 13.8992 16.9397 13.6009 16.939 13.295V8C16.939 6.01088 16.1488 4.10322 14.7423 2.6967C13.3357 1.29018 11.4281 0.5 9.43896 0.5C7.44984 0.5 5.54218 1.29018 4.13566 2.6967C2.72914 4.10322 1.93896 6.01088 1.93896 8V13.295C1.93824 13.6009 1.84403 13.8992 1.66896 14.15L0.386463 15.995C0.192273 16.2102 0.064576 16.477 0.018815 16.7632C-0.0269461 17.0494 0.0111884 17.3427 0.128607 17.6077C0.246026 17.8727 0.437699 18.098 0.680449 18.2563C0.923199 18.4147 1.20663 18.4993 1.49646 18.5H5.76396C5.9361 19.3477 6.39601 20.1099 7.06577 20.6573C7.73553 21.2047 8.57395 21.5038 9.43896 21.5038C10.304 21.5038 11.1424 21.2047 11.8122 20.6573C12.4819 20.1099 12.9418 19.3477 13.114 18.5H17.3815C17.6713 18.4993 17.9547 18.4147 18.1975 18.2563C18.4402 18.098 18.6319 17.8727 18.7493 17.6077C18.8667 17.3427 18.9049 17.0494 18.8591 16.7632C18.8134 16.477 18.6857 16.2102 18.4915 15.995ZM9.43896 20C8.97476 19.9987 8.52231 19.8538 8.14366 19.5853C7.76502 19.3168 7.4787 18.9377 7.32396 18.5H11.554C11.3992 18.9377 11.1129 19.3168 10.7343 19.5853C10.3556 19.8538 9.90317 19.9987 9.43896 20ZM1.49646 17C1.53036 16.9685 1.56056 16.9333 1.58646 16.895L2.89896 15.005C3.2491 14.5034 3.43751 13.9067 3.43896 13.295V8C3.43896 6.4087 4.0711 4.88258 5.19632 3.75736C6.32154 2.63214 7.84766 2 9.43896 2C11.0303 2 12.5564 2.63214 13.6816 3.75736C14.8068 4.88258 15.439 6.4087 15.439 8V13.295C15.4404 13.9067 15.6288 14.5034 15.979 15.005L17.2915 16.895C17.3174 16.9333 17.3476 16.9685 17.3815 17H1.49646Z" fill="#FE5900"/>
</svg>
